<?xml version="1.0" encoding="UTF-8" standalone="no"?><!DOCTYPE svg PUBLIC "-//W3C//DTD SVG 1.1//EN" "http://www.w3.org/Graphics/SVG/1.1/DTD/svg11.dtd"><svg width="100%" height="100%" viewBox="0 0 10000 10000" version="1.1" xmlns="http://www.w3.org/2000/svg" xmlns:xlink="http://www.w3.org/1999/xlink" xml:space="preserve" xmlns:serif="http://www.serif.com/" style="fill-rule:evenodd;clip-rule:evenodd;stroke-linejoin:round;stroke-miterlimit:2;"><rect id="ArtBoard5" x="0" y="0" width="10000" height="10000" style="fill:none;"/><clipPath id="_clip1"><rect x="0" y="0" width="10000" height="10000"/></clipPath><g clip-path="url(#_clip1)"><circle cx="4992" cy="5000" r="5000" style="fill:#fff;"/><g><path d="M2571.26,8253.53l-0,-5920.55l-1215.58,448.298l0,7104.16l7293.46,-2449.71l-0,-1224.86l-6077.88,2042.66Z" style="fill:#fff;"/><path d="M2968.02,7720.19l-0,-5534.15l1420.28,-525.221l1420.28,2432.91l1420.28,-3480.49l1420.28,-526.653l-0,5724.49l-1420.28,477.995l0,-2920.92l-1420.28,2729.15l-1420.28,-1717.35l-0,2862.24l-1420.28,477.995Z" style="fill:#fff;"/></g><g><path d="M2808.67,7934.44l-0,-5317.04l-1091.67,402.6l-0,6380l6550,-2200l-0,-1100l-5458.33,1834.44Z"/><path d="M3164.99,7455.47l-0,-4970.02l1275.5,-471.683l1275.5,2184.91l1275.5,-3125.7l1275.5,-472.968l-0,5140.96l-1275.5,429.27l-0,-2623.18l-1275.5,2450.95l-1275.5,-1542.29l-0,2570.48l-1275.5,429.27Z"/></g></g></svg>